<svg width="128" height="128" viewBox="0 0 128 128" fill="none" xmlns="http://www.w3.org/2000/svg">
<g clip-path="url(#clip0_33996_3492)">
<path fill-rule="evenodd" clip-rule="evenodd" d="M64.0013 2.66663C48.8078 2.67451 34.1125 8.05574 22.5431 17.8481C10.9737 27.6404 3.28465 41.2053 0.850741 56.1173C-1.58317 71.0292 1.39678 86.3158 9.25781 99.2436C17.1188 112.171 29.3483 121.897 43.7595 126.682C46.9388 127.273 48.1363 125.302 48.1363 123.627C48.1363 121.951 48.0727 117.093 48.0515 111.782C30.2473 115.629 26.4851 104.269 26.4851 104.269C23.5813 96.893 19.3846 94.9541 19.3846 94.9541C13.577 91.013 19.8191 91.0868 19.8191 91.0868C26.252 91.5399 29.6327 97.6517 29.6327 97.6517C35.3343 107.378 44.6073 104.564 48.2529 102.92C48.8252 98.8003 50.4891 95.9973 52.3225 94.4061C38.1003 92.8044 23.1574 87.346 23.1574 62.9622C23.0692 56.6384 25.4293 50.5229 29.7492 45.8809C29.0922 44.2792 26.8984 37.8092 30.3745 29.0209C30.3745 29.0209 35.7476 27.3139 47.9774 35.5436C58.4674 32.6913 69.5351 32.6913 80.0251 35.5436C92.2443 27.3139 97.6068 29.0209 97.6068 29.0209C101.093 37.7881 98.8997 44.2582 98.2427 45.8809C102.576 50.5236 104.941 56.6498 104.845 62.9833C104.845 87.4197 89.8704 92.8044 75.627 94.3745C77.9161 96.3556 79.9615 100.223 79.9615 106.166C79.9615 114.68 79.8873 121.53 79.8873 123.627C79.8873 125.323 81.0424 127.304 84.2854 126.682C98.6982 121.897 110.929 112.169 118.79 99.2391C126.651 86.3091 129.629 71.0202 127.192 56.1069C124.756 41.1936 117.063 27.6285 105.49 17.8379C93.9164 8.04719 79.2177 2.66951 64.0224 2.66663H64.0013Z" fill="#222724"/>
<path d="M42.8151 106.535C42.8151 107.051 42.2217 107.494 41.4586 107.504C40.6956 107.515 40.0703 107.093 40.0703 106.577C40.0703 106.061 40.6638 105.618 41.4268 105.607C42.1898 105.597 42.8151 106.008 42.8151 106.535Z" fill="#222724"/>
<path d="M47.6899 105.723C47.7853 106.24 47.2554 106.777 46.4924 106.904C45.7294 107.03 45.0617 106.724 44.9663 106.219C44.8709 105.713 45.422 105.165 46.1639 105.028C46.9057 104.891 47.5946 105.207 47.6899 105.723Z" fill="#222724"/>
<path d="M37.5798 106.176C37.4208 106.672 36.7001 106.893 35.9795 106.682C35.2588 106.472 34.7819 105.881 34.9197 105.376C35.0575 104.87 35.7887 104.638 36.52 104.87C37.2512 105.102 37.7175 105.66 37.5798 106.176Z" fill="#222724"/>
<path d="M32.779 104.111C32.4292 104.501 31.7192 104.396 31.1363 103.869C30.5534 103.342 30.4156 102.625 30.7654 102.246C31.1151 101.867 31.8251 101.972 32.4292 102.488C33.0333 103.005 33.1499 103.732 32.779 104.111V104.111Z" fill="#222724"/>
<path d="M29.3561 100.571C28.964 100.845 28.2963 100.571 27.9254 100.023C27.8228 99.9243 27.7413 99.8065 27.6856 99.6761C27.6298 99.5458 27.6011 99.4056 27.6011 99.2639C27.6011 99.1223 27.6298 98.9821 27.6856 98.8517C27.7413 98.7214 27.8228 98.6035 27.9254 98.5052C28.3175 98.2418 28.9852 98.5052 29.3561 99.0427C29.7271 99.5801 29.7377 100.297 29.3561 100.571V100.571Z" fill="#222724"/>
<path d="M26.8334 96.914C26.6139 97.024 26.3628 97.0547 26.1231 97.0008C25.8834 96.947 25.6699 96.812 25.5193 96.619C25.106 96.1764 25.0211 95.5652 25.3391 95.2913C25.657 95.0173 26.2293 95.1437 26.6426 95.5863C27.0559 96.0289 27.1513 96.64 26.8334 96.914Z" fill="#222724"/>
<path d="M24.2368 94.0374C24.0991 94.3535 23.5904 94.4483 23.1771 94.227C22.7637 94.0057 22.4564 93.5948 22.6048 93.2681C22.7532 92.9415 23.2513 92.8572 23.6646 93.0784C24.0779 93.2997 24.3958 93.7212 24.2368 94.0374Z" fill="#222724"/>
</g>
<defs>
<clipPath id="clip0_33996_3492">
<rect width="128" height="128" fill="white"/>
</clipPath>
</defs>
</svg>
